<?xml version="1.0" encoding="UTF-8"?>
<svg width="40px" height="40px" viewBox="0 0 40 40" version="1.1" xmlns="http://www.w3.org/2000/svg" xmlns:xlink="http://www.w3.org/1999/xlink">
    <!-- Generator: Sketch 55.2 (78181) - https://sketchapp.com -->
    <title>mail</title>
    <desc>Created with Sketch.</desc>
    <defs>
        <path d="M28,15.519153 L28,25.0013517 C28,25.5528899 27.5553691,26 26.9991283,26 L13.0008717,26 C12.4481055,26 12,25.5499902 12,25.0013517 L12,15.519153 L12,16.4337539 L18.8341015,21.3370061 C19.5309644,21.8369833 20.4690356,21.8369833 21.1658985,21.3370061 L28,16.4337539 L28,15.519153 Z M12.8999935,13.9999454 L27.1000065,13.9999454 C27.265692,13.9999454 27.4000065,14.13426 27.4000065,14.2999454 C27.4000065,14.3943722 27.3555487,14.4832883 27.2800076,14.5399446 L20.6000035,19.5499933 C20.2444465,19.8166634 19.7555535,19.8166634 19.3999965,19.5499933 L12.7199924,14.5399446 C12.5874445,14.4405328 12.5605824,14.2524923 12.6599942,14.1199444 C12.7166506,14.0444032 12.8055667,13.9999454 12.8999935,13.9999454 Z" id="path-1"></path>
    </defs>
    <g id="mail" stroke="none" stroke-width="1" fill="none" fill-rule="evenodd">
        <circle id="Oval" fill="#E8F5E9" cx="20" cy="20" r="20"></circle>
        <path d="M20,40 C31.045695,40 40,31.045695 40,20 C40,8.954305 31.045695,0 20,0 C8.954305,0 0,8.954305 0,20 C0,31.045695 8.954305,40 20,40 Z M20,39 C9.50658975,39 1,30.4934102 1,20 C1,9.50658975 9.50658975,1 20,1 C30.4934102,1 39,9.50658975 39,20 C39,30.4934102 30.4934102,39 20,39 Z" id="Oval" fill="#ADDEB3" fill-rule="nonzero"></path>
        <mask id="mask-2" fill="white">
            <use xlink:href="#path-1"></use>
        </mask>
        <use id="Mask" fill="#3FB34F" xlink:href="#path-1"></use>
    </g>
</svg>